<svg xmlns="http://www.w3.org/2000/svg" xmlns:xlink="http://www.w3.org/1999/xlink"><symbol id="icon-alarm" viewBox="0 0 34 34">
<path d="M31.74 11.503a15.719 15.719 0 0 0-8.243-8.243c1-.787 2.258-1.26 3.629-1.26A5.874 5.874 0 0 1 33 7.874a5.846 5.846 0 0 1-1.26 3.629zM31.5 18c0 3.852-1.512 7.343-3.963 9.94l2.029 2.028a1.483 1.483 0 0 1-2.097 2.097l-2.18-2.178A14.419 14.419 0 0 1 17 32.5a14.42 14.42 0 0 1-8.276-2.603L6.561 32.06A1.5 1.5 0 1 1 4.44 29.94l2.011-2.012C4.008 25.332 2.5 21.845 2.5 18 2.5 9.992 8.992 3.5 17 3.5S31.5 9.992 31.5 18zM17 6.5C10.649 6.5 5.5 11.648 5.5 18c0 6.351 5.149 11.5 11.5 11.5S28.5 24.35 28.5 18c0-6.352-5.149-11.5-11.5-11.5zm6 13h-6a1.5 1.5 0 0 1-1.5-1.5v-8a1.5 1.5 0 0 1 3 0v6.5H23a1.5 1.5 0 0 1 0 3zM2.287 11.705A5.967 5.967 0 0 1 1 8a6 6 0 0 1 6-6c1.4 0 2.685.483 3.706 1.287a16.056 16.056 0 0 0-8.419 8.418z"/>
</symbol><symbol id="icon-book" viewBox="0 0 35 34">
<path d="M33.065 26.89l-14.471 5.987a1.496 1.496 0 0 1-1.188 0L2.936 26.89A1.5 1.5 0 0 1 2 25.5v-23a1.5 1.5 0 0 1 2.073-1.385l.003.001.013.005L18 6.876 31.91 1.12l.014-.005.003-.001A1.5 1.5 0 0 1 34 2.5v23a1.5 1.5 0 0 1-.935 1.39zM16.5 9.502L5 4.743v19.754l11.5 4.759V9.503zM31 4.743l-11.5 4.76v19.753l11.5-4.76V4.745zm-9.12 6.891l5.5-2.5a1.5 1.5 0 0 1 1.241 2.731l-5.5 2.5a1.5 1.5 0 0 1-1.241-2.731zm0 5.5l5.5-2.5a1.499 1.499 0 0 1 2.12 1.365 1.5 1.5 0 0 1-.88 1.366l-5.5 2.5a1.5 1.5 0 0 1-1.241-2.73zm0 5.5l5.5-2.5a1.5 1.5 0 0 1 1.241 2.731l-5.5 2.5a1.5 1.5 0 0 1-1.241-2.731zM8 9c.221 0 .431.048.62.134l5.5 2.5a1.5 1.5 0 0 1-1.24 2.731l-5.5-2.5A1.5 1.5 0 0 1 8 9zm0 5.5c.221 0 .431.048.62.134l5.5 2.5a1.5 1.5 0 1 1-1.24 2.73v.001l-5.5-2.5A1.5 1.5 0 0 1 8 14.5zM8 20c.221 0 .431.048.62.134l5.5 2.5a1.5 1.5 0 0 1-1.24 2.731l-5.5-2.5A1.5 1.5 0 0 1 8 20z"/>
</symbol><symbol id="icon-computer" viewBox="0 0 34 31">
<path d="M31 25h-7.5-2v2.5l2 2v.5h-13v-.5l2-2V25h-2H3a1.5 1.5 0 0 1-1.5-1.5v-20A1.5 1.5 0 0 1 3 2h28a1.5 1.5 0 0 1 1.5 1.5v20A1.5 1.5 0 0 1 31 25zm-.5-21h-27v17h27V4zM14 11c.414 0 .79.168 1.06.439l.94.94 2.94-2.94a1.5 1.5 0 1 1 2.121 2.121l-4 4a1.496 1.496 0 0 1-2.122 0l-2-2A1.5 1.5 0 0 1 14 11z"/>
</symbol><symbol id="icon-facebook" viewBox="0 0 15 29">
<path d="M13.09 2.199v4.12s-3.038-.302-3.799.862c-.416.636-.169 2.5-.206 3.838h4.03c-.341 1.564-.585 2.624-.836 3.978H9.063v12.804H3.48V15.047H1.106V11.02h2.349c.12-2.946.165-5.864 1.629-7.35 1.644-1.67 3.213-1.47 8.005-1.47z"/>
</symbol><symbol id="icon-home" viewBox="0 0 35 33">
<path d="M34 17.5a1.5 1.5 0 0 1-1.5 1.5 1.49 1.49 0 0 1-1.02-.406l-.003.004L18.038 5.159 18 5.122 4.554 18.568a1.5 1.5 0 1 1-2.092-2.15L16.918 1.96c.273-.283.656-.46 1.08-.46h.002c.026 0 .052 0 .079.002h.012a1.983 1.983 0 0 1 .072.007c.367.04.694.212.933.468L25 7.877V6.5a1.5 1.5 0 1 1 3 0v4.378l5.598 5.598-.004.004c.25.268.406.625.406 1.02zM31 20v10.5a1.5 1.5 0 0 1-1.5 1.5h-3V20h-6v12h-14A1.5 1.5 0 0 1 5 30.5v-4-2V20L18 7l13 13zm-15.5 0h-6v6h6v-6z"/>
</symbol><symbol id="icon-image" viewBox="0 0 36 34">
<path d="M32.5 33h-29A1.5 1.5 0 0 1 2 31.5v-29A1.5 1.5 0 0 1 3.5 1h29A1.5 1.5 0 0 1 34 2.5v29a1.5 1.5 0 0 1-1.5 1.5zM31 4H5v26h26V4zM8.5 5.5H14a1.5 1.5 0 0 1 0 3H9.5V13a1.5 1.5 0 1 1-3 0V7.5v-2h2zM6.5 21a1.5 1.5 0 1 1 3 0v4.5H14a1.5 1.5 0 1 1 0 3H8.5h-2v-2V21zM22 5.5h7.5V13a1.5 1.5 0 1 1-3 0V8.5H22a1.5 1.5 0 1 1 0-3zm0 20h4.5V21a1.5 1.5 0 0 1 3 0v7.5h-2H22a1.5 1.5 0 0 1 0-3z"/>
</symbol><symbol id="icon-instagram" viewBox="0 0 28 28">
<path d="M23.7 26.8H4.5a3.2 3.2 0 0 1-3.2-3.2V4.4a3.2 3.2 0 0 1 3.2-3.2h19.2a3.2 3.2 0 0 1 3.2 3.2v19.2a3.2 3.2 0 0 1-3.2 3.2zM14.1 9.04a4.957 4.957 0 0 0-4.498 2.88h-.005l-.022.054a4.935 4.935 0 0 0-.128.321c-.02.053-.04.104-.057.156a4.999 4.999 0 0 0-.095.34c-.014.053-.03.106-.042.16a4.983 4.983 0 0 0-.061.368c-.007.05-.017.099-.023.15a4.96 4.96 0 1 0 9.861 0c-.005-.051-.015-.1-.022-.15a4.983 4.983 0 0 0-.061-.368c-.012-.054-.028-.107-.042-.16a4.999 4.999 0 0 0-.095-.34c-.017-.052-.038-.103-.057-.156a4.935 4.935 0 0 0-.128-.32l-.022-.056h-.005A4.957 4.957 0 0 0 14.1 9.04zm9.92-3.68a1.28 1.28 0 0 0-1.28-1.28h-2.56a1.28 1.28 0 0 0-1.28 1.28v2.56c0 .707.573 1.28 1.28 1.28h2.56a1.28 1.28 0 0 0 1.28-1.28V5.36zm0 6.56h-2.36a7.84 7.84 0 0 1-7.56 9.92 7.84 7.84 0 0 1-7.56-9.92H4.18v10.72c0 .707.573 1.28 1.28 1.28h17.28a1.28 1.28 0 0 0 1.28-1.28V11.92z"/>
</symbol><symbol id="icon-line_graph" viewBox="0 0 35 35">
<path d="M31.5 34h-29A1.5 1.5 0 0 1 1 32.5v-29A1.5 1.5 0 0 1 2.5 2h29A1.5 1.5 0 0 1 33 3.5v29a1.5 1.5 0 0 1-1.5 1.5zM30 5H4v26h26V5zM6.215 18.239v-.002l4-2.5v.002a1.49 1.49 0 0 1 .785-.222c.311 0 .6.095.84.257l.006-.008 6.63 4.42 7.639-5.391a1.5 1.5 0 0 1 1.764 2.426l-8.5 6a1.493 1.493 0 0 1-1.74.012l-6.657-4.438-3.135 1.96a1.5 1.5 0 0 1-1.631-2.516z"/>
</symbol><symbol id="icon-magnifying_glass" viewBox="0 0 20 20">
<path d="M18.317 15.983a1.65 1.65 0 1 1-2.334 2.334l-4.836-4.836c-.982.58-2.124.919-3.347.919a6.6 6.6 0 1 1 6.6-6.6 6.558 6.558 0 0 1-.92 3.347l4.837 4.836zM7.8 2.849a4.95 4.95 0 1 0 0 9.9 4.95 4.95 0 0 0 0-9.9z"/>
</symbol><symbol id="icon-pinterest" viewBox="0 0 23 29">
<path d="M10.05 17.854c-.208.833-.419 1.706-.637 2.56-.215.842-.405 1.696-.718 2.47-.519 1.281-1.178 2.52-2.043 3.521-.575.667-.453.4-.626.365-.132-.028-.143-.157-.17-.345-.14-1.018-.044-2.195.008-3.34.06-1.303.334-2.387.589-3.47.484-2.064.946-4.087 1.435-6.164.032-.138.12-.366.09-.445-.222-.577-.366-1.095-.429-1.7a5.41 5.41 0 0 1 .14-1.944c.276-1.058.912-1.995 1.893-2.338.624-.216 1.315-.118 1.735.132.432.259.729.667.867 1.246.148.615.039 1.35-.08 1.891-.267 1.219-.618 2.134-.937 3.31-.158.583-.337 1.182-.19 1.812.137.578.438.976.848 1.275.426.31.93.48 1.625.455 1.228-.043 2.081-.828 2.651-1.568.913-1.185 1.465-2.784 1.675-4.686.067-.614.117-1.319.07-2.014-.088-1.284-.49-2.317-1.127-3.117-.606-.763-1.466-1.37-2.512-1.71-1.037-.34-2.472-.452-3.747-.234-2.318.397-3.952 1.714-4.915 3.533a7.078 7.078 0 0 0-.837 3.41c0 1.05.26 1.865.678 2.5.133.201.328.367.458.597.185.326-.028.811-.12 1.164-.11.425-.12 1.012-.617 1.022-.206.004-.464-.146-.638-.243-1.305-.721-2.097-2.033-2.422-3.734a8.934 8.934 0 0 1 0-3.238c.19-.967.544-1.858.937-2.581a9.238 9.238 0 0 1 3.459-3.563c1.116-.66 2.375-1.123 3.907-1.346a16.417 16.417 0 0 1 1.605-.132 9.638 9.638 0 0 1 4.326.81 8.849 8.849 0 0 1 2.98 2.146c.838.915 1.448 1.98 1.834 3.309.202.692.398 1.432.398 2.287 0 .858-.181 1.613-.308 2.368-.474 2.828-1.819 5.141-3.838 6.458a6.635 6.635 0 0 1-1.754.809c-.667.194-1.428.34-2.243.283a4.599 4.599 0 0 1-1.983-.577c-.54-.305-.994-.679-1.316-1.244z"/>
</symbol><symbol id="icon-shopping_cart" viewBox="0 0 20 17">
<path d="M18.726 4.663h.001l-2.475 5.5a.824.824 0 0 1-.697.485l-7.128.475.412 1.176H16.6a1.65 1.65 0 1 1-1.65 1.65h-7.7A1.65 1.65 0 1 1 5.6 12.3h1.49L3.916 3.225h-1.89a.825.825 0 0 1 0-1.65H4.5c.36 0 .663.232.776.553h.003l.48 1.372h12.216a.825.825 0 0 1 .751 1.163zm-12.39.487l1.526 4.357 7.089-.473 1.748-3.884H6.337z"/>
</symbol><symbol id="icon-twitter" viewBox="0 0 28 24">
<path d="M18.513 1.601c2.034-.036 3.117.705 4.15 1.647.879-.075 2.02-.565 2.692-.907l.653-.357c-.384 1.037-.904 1.85-1.704 2.466-.178.136-.354.321-.577.408v.013c1.14-.011 2.08-.526 2.973-.805v.013c-.469.745-1.104 1.502-1.781 2.044l-.82.651c.015 1.207-.018 2.359-.243 3.373-1.312 5.895-4.788 9.897-10.29 11.612-1.975.615-5.167.868-7.43.306-1.123-.278-2.137-.593-3.088-1.009a12.285 12.285 0 0 1-1.487-.767l-.461-.28c.51.015 1.108.156 1.678.063.517-.083 1.023-.061 1.5-.165 1.188-.261 2.243-.606 3.151-1.138.441-.258 1.11-.56 1.423-.932-.59.01-1.125-.127-1.563-.281-1.7-.6-2.688-1.703-3.332-3.36.515.057 1.998.19 2.345-.102-.648-.036-1.271-.411-1.717-.69-1.367-.855-2.481-2.289-2.473-4.496l.538.255c.344.145.693.222 1.102.307.173.036.52.137.718.063h-.026c-.264-.307-.695-.512-.96-.843-.878-1.09-1.7-2.766-1.18-4.764a6.1 6.1 0 0 1 .564-1.367l.026.012c.102.214.33.371.474.55.448.555 1 1.054 1.563 1.494 1.918 1.5 3.645 2.422 6.42 3.104.703.174 1.516.306 2.357.307-.236-.687-.16-1.8.025-2.465.468-1.674 1.483-2.88 2.973-3.526a6.312 6.312 0 0 1 1.166-.358l.64-.076z"/>
</symbol></svg>